<?xml version='1.0' encoding='utf-8'?>
<svg xmlns="http://www.w3.org/2000/svg" enable-background="new 0 0 1920 1920" version="1.1" viewBox="0 0 1920 1920">
	<path d="m1548.6 282.87c18.83-6.09 37.59-14.91 50.93-29.97 1.4 11.83 0.8 24.07-3.35 35.32-6.22 17.19-17.25 32.08-28.46 46.31 8.04-1.78 16.27-2.83 24.15-5.32 26.78-7.88 53.52-15.87 80.3-23.73 10.74 18.99 13.14 41.24 14.57 62.63 1.0599 23.62 0.1699 47.3-2.0701 70.83-2.38 24.65-5.48 49.35-12.13 73.25-9.1 34.38-25.53 66.35-33.58 101.04 25.4 20.35 45.5 46.63 61.56 74.78 20.5 36.07 34.72 75.41 45.1 115.49 11.61 45.31 18.24 91.82 21.08 138.48 2.95 48.68 1.64 97.62-3.9301 146.07-4.5199 38.76-11.79 77.26-22.87 114.69-2.13 6.49-3.61 13.25-6.5599 19.44-5.97-21.18-12.42-42.23-19.52-63.06-0.35-1-0.6801-1.98-0.98-2.9399-0.98-3-2-5.9701-3.0601-8.92-1.97-5.67-3.7-11.44-6.0399-16.96-2.13-6.42-4.38-12.78-7.0601-18.98-0.85-2.71-1.8199-5.37-3.02-7.9199-0.88-2.72-1.84-5.4-2.97-8-0.66-1.6801-1.3199-3.34-2-4.98-6.3-15.81-12.79-31.56-20.02-46.96-1.59-4.51-3.96-8.6699-6.03-12.94-0.6799-1.37-1.33-2.73-1.97-4.0801-3.5-8.1799-7.45-16.24-11.97-23.9-0.7-1.35-1.38-2.69-2.05-4.02-2.2699-4.35-4.1599-8.92-6.95-12.97-1.53-3.08-3.0601-6.16-4.9399-9.02-0.9401-1.71-1.9401-3.3701-3.04-4.95-1.1901-2.42-2.4301-4.81-3.9501-7.02-1.1699-2.07-2.38-4.1-3.63-6.1-1.09-1.8-2.1299-3.6-3.1599-5.4-0.3101-0.31-0.9401-0.93-1.25-1.25-1.47-3.47-3.8101-6.43-5.8201-9.57-3.33-5.03-6.8099-9.97-9.9399-15.12-0.3-0.33-0.9-1-1.21-1.34-1.7001-3-3.8401-5.7-5.8201-8.5-3.77-5.4901-7.92-10.69-12.01-15.93-2.22-3.11-4.85-5.89-6.9399-9.08-1.8101-1.9-3.74-3.72-5.03-6.02-3.3-3.16-5.63-7.17-9.04-10.22-3-2.75-4.95-6.42-8.03-9.09-10.57-10.06-20.23-21.14-31.48-30.44-10.23-9.06-20.92-17.67-32.24-25.35-0.34-0.29-1.01-0.86-1.34-1.15-4.16-2.5-8.14-5.27-12.13-8-3.73-2.34-7.47-4.66-11.31-6.81-1.61-1.06-3.2599-2.04-4.9199-2.97-1.42-0.64-2.84-1.27-4.24-1.89-0.3401-0.34-1.03-1.02-1.37-1.37-6.87-3.06-13.31-7.07-20.37-9.68-2.9501-1.45-5.89-2.9-8.9601-4.05-1.6599-0.68-3.3199-1.35-4.98-1.98-42.61-17.02-88.81-24.51-134.6-23.57-64.48 1.44-127.89 17.87-187.63 41.53-10.35 3.92-20.49 8.34-30.68 12.62l-0.09 0.41c-3.0499 0.95-5.91 2.37-8.83 3.62l-0.21 0.38c-5.39 1.84-10.39 4.64-15.43 7.25l-1.52-0.12-0.03 1.44c-0.49-0.15-1.48-0.47-1.98-0.62l0.0701 1.02c-7.7201 2.71-14.69 7.15-22.07 10.63v0.96c-0.5-0.15-1.49-0.45-1.98-0.6l-0.01 1.55c-0.48-0.12-1.46-0.38-1.95-0.5l-0.0699 1.46c-0.47-0.1-1.41-0.31-1.88-0.41l-0.14 0.94c-5.08 2.23-9.88 5.04-14.8 7.6l-0.22 0.5c-1.84 0.65-3.66 1.3199-5.5 1.92 2.12-8.8 5.32-17.32 7.31-26.16 3.19-13.11 6.58-26.46 5.94-40.06-0.29-7.74-3.83-15.82-10.79-19.73-5.4-2.19-11.39-3.17-17.15-2.04-14.03 1.48-27.51 5.87-40.91 10.03-43.31 13.75-86.87 28.67-132.47 32.34-5.36 0.09-10.63 1.22-15.99 1.01-6.67-0.25-13.26 1.05-19.92 0.96-7.36 0.19-14.76-0.07-22.08 0.86-11.65 0.41-23.34-0.15-34.95 0.96-21.69 0.6-43.43-0.19-65.08 1.16-20.98-0.07-41.96 0.16-62.94 0.39-12.99 1.2-26.06 0.28-39.06 0.99-8.88 1.19-17.89 0.15-26.77 1.28-41.25 2.16-83 6.15-122.43 19.29-12.25 4.53-24.37 9.55-35.6 16.28-3.75 2.22-7.3 4.76-10.98 7.08-3.97 2.74-7.78 5.71-11.5 8.78-21.55 17.58-37.54 41.07-49.53 65.97-14.29 29.99-23.39 62.16-30.42 94.54-13.91 65.94-19.74 133.27-24.05 200.42-0.76-0.78-1.35-1.66-1.76-2.62-10.58-29.66-21.14-59.32-32-88.87-0.37-1-0.73-1.98-1.1-2.95-1.22-3.7101-2.45-7.42-4.02-10.99-4.15-12.28-8.89-24.34-13.3-36.51-17.03-50.53-27.32-103.44-29.64-156.71-1.01-15.31-0.44-30.7-0.33-46.04 0.9-6.6 0.59-13.29 1.38-19.89 3.12-41.67 11.77-82.96 25.9-122.31 1.11-2.61 2.09-5.2599 3-7.9399 0.7-1.66 1.38-3.33 2.06-4.9901 0.66-1.67 1.32-3.33 1.97-4.99 1.05-2.31 2.07-4.63 3-6.98 1.82-3.95 3.7-7.86 5.46-11.82 17.29-35.65 39.78-68.88 67.27-97.46 24.84-26.07 53.63-48.3 84.83-66.25 9.26-5.43 18.93-10.11 28.79-14.33 13.59-5.88 28.2-11.11 38.58-22.17 6.24-6.1 10.54-13.74 14.79-21.25 20.94-29.34 47.42-54.51 76.92-75.12 32.17-22.5 67.82-39.68 104.68-53 41.1-14.8 83.77-24.93 126.79-32.27 81.6-13.73 164.48-17.63 247.1-18.27 115.04-0.65 229.92 6.27 344.9 8.7 48.72 0.65 97.56 0.87 146.11-3.82 24.84-2.5698 49.73-6.3198 73.59-13.89z"/>
</svg>